<svg width="27" height="23" viewBox="0 0 27 23" fill="none" xmlns="http://www.w3.org/2000/svg">
<path d="M25.1202 10.0588L3.1237 0.2101C2.75291 0.0469425 2.32763 -0.0238602 1.90433 0.00709661C1.48103 0.0380534 1.07975 0.169305 0.753807 0.383415C0.427863 0.597525 0.192676 0.884359 0.0794893 1.20582C-0.0336974 1.52727 -0.0195266 1.86813 0.120119 2.18312L4.17901 11.4751C4.17848 11.4785 4.17848 11.482 4.17901 11.4854C4.17827 11.4888 4.17827 11.4923 4.17901 11.4957L0.120119 20.8082C0.00828492 21.056 -0.026147 21.3212 0.0197133 21.5816C0.0655735 21.842 0.190388 22.0899 0.383681 22.3046C0.576973 22.5193 0.833104 22.6945 1.13057 22.8155C1.42805 22.9365 1.75818 22.9998 2.09326 23C2.45682 22.9993 2.81399 22.925 3.13024 22.7843L25.115 12.9192C25.4393 12.7767 25.7094 12.5691 25.8976 12.3176C26.0859 12.0662 26.1854 11.78 26.1861 11.4884C26.1868 11.1969 26.0885 10.9104 25.9014 10.6584C25.7144 10.4065 25.4452 10.1981 25.1216 10.0547L25.1202 10.0588ZM2.09326 21.3567V21.3474L6.03955 12.3184H13.6153C13.8931 12.3184 14.1595 12.2318 14.3559 12.0777C14.5524 11.9236 14.6627 11.7146 14.6627 11.4967C14.6627 11.2788 14.5524 11.0698 14.3559 10.9157C14.1595 10.7616 13.8931 10.675 13.6153 10.675H6.05002L2.10112 1.64904L2.09326 1.63671L24.0898 11.4792L2.09326 21.3567Z" fill="white"/>
</svg>
