<svg width="31" height="32" viewBox="0 0 31 32" fill="none" xmlns="http://www.w3.org/2000/svg">
<path d="M28.3783 0H2.3649C1.7377 0 1.13619 0.280951 0.692692 0.781048C0.249195 1.28115 4.11771e-05 1.95942 4.11771e-05 2.66667V29.3333C-0.00263089 29.8416 0.124797 30.34 0.367038 30.7686C0.60928 31.1973 0.956048 31.538 1.36575 31.75C1.67882 31.9139 2.01973 31.9992 2.3649 32C2.92006 31.9985 3.4568 31.7753 3.87989 31.37C3.88694 31.3648 3.89339 31.3587 3.8991 31.3517L8.64656 26.6667H28.3783C29.0055 26.6667 29.6071 26.3857 30.0506 25.8856C30.494 25.3855 30.7432 24.7072 30.7432 24V2.66667C30.7432 1.95942 30.494 1.28115 30.0506 0.781048C29.6071 0.280951 29.0055 0 28.3783 0ZM28.3783 24H8.64656C8.08967 23.9997 7.55055 24.221 7.12418 24.625L7.10644 24.6433L2.3649 29.3333V2.66667H28.3783V24ZM13.598 13.3333C13.598 12.9378 13.702 12.5511 13.8969 12.2222C14.0918 11.8933 14.3688 11.6369 14.6929 11.4856C15.017 11.3342 15.3736 11.2946 15.7176 11.3718C16.0617 11.4489 16.3777 11.6394 16.6258 11.9191C16.8738 12.1988 17.0428 12.5552 17.1112 12.9432C17.1796 13.3311 17.1445 13.7332 17.0103 14.0987C16.876 14.4642 16.6487 14.7765 16.357 14.9963C16.0653 15.216 15.7224 15.3333 15.3716 15.3333C14.9012 15.3333 14.4501 15.1226 14.1175 14.7475C13.7848 14.3725 13.598 13.8638 13.598 13.3333ZM7.09462 13.3333C7.09462 12.9378 7.19864 12.5511 7.39353 12.2222C7.58842 11.8933 7.86543 11.6369 8.18952 11.4856C8.51361 11.3342 8.87023 11.2946 9.21428 11.3718C9.55834 11.4489 9.87437 11.6394 10.1224 11.9191C10.3705 12.1988 10.5394 12.5552 10.6078 12.9432C10.6763 13.3311 10.6411 13.7332 10.5069 14.0987C10.3727 14.4642 10.1453 14.7765 9.85365 14.9963C9.56197 15.216 9.21906 15.3333 8.86826 15.3333C8.39786 15.3333 7.94673 15.1226 7.61411 14.7475C7.28148 14.3725 7.09462 13.8638 7.09462 13.3333ZM20.1013 13.3333C20.1013 12.9378 20.2054 12.5511 20.4003 12.2222C20.5951 11.8933 20.8721 11.6369 21.1962 11.4856C21.5203 11.3342 21.8769 11.2946 22.221 11.3718C22.5651 11.4489 22.8811 11.6394 23.1291 11.9191C23.3772 12.1988 23.5461 12.5552 23.6145 12.9432C23.683 13.3311 23.6479 13.7332 23.5136 14.0987C23.3794 14.4642 23.152 14.7765 22.8604 14.9963C22.5687 15.216 22.2258 15.3333 21.875 15.3333C21.4046 15.3333 20.9535 15.1226 20.6208 14.7475C20.2882 14.3725 20.1013 13.8638 20.1013 13.3333Z" fill="white"/>
</svg>
