<svg width="38" height="32" viewBox="0 0 38 32" fill="none" xmlns="http://www.w3.org/2000/svg">
<g filter="url(#filter0_d_640_939)">
<path d="M34.6271 11.8302L23.134 0.337079C22.9733 0.176249 22.7686 0.0666711 22.5457 0.0222039C22.3227 -0.0222632 22.0916 0.000377593 21.8816 0.0872628C21.6715 0.174148 21.4919 0.321375 21.3655 0.510325C21.2391 0.699275 21.1716 0.92146 21.1715 1.14878V6.94563C17.4449 7.26457 13.3289 9.0891 9.94272 11.961C5.86553 15.4204 3.32699 19.8783 2.79399 24.5129C2.75234 24.8732 2.8254 25.2375 3.00277 25.5539C3.18014 25.8703 3.45279 26.1227 3.78191 26.2751C4.11103 26.4276 4.47985 26.4724 4.83589 26.4031C5.19193 26.3338 5.51705 26.154 5.76497 25.8892C7.34527 24.2069 12.9683 18.887 21.1715 18.4187V24.1351C21.1716 24.3624 21.2391 24.5846 21.3655 24.7735C21.4919 24.9625 21.6715 25.1097 21.8816 25.1966C22.0916 25.2835 22.3227 25.3061 22.5457 25.2616C22.7686 25.2172 22.9733 25.1076 23.134 24.9468L34.6271 13.4536C34.842 13.2382 34.9627 12.9463 34.9627 12.6419C34.9627 12.3376 34.842 12.0457 34.6271 11.8302ZM23.4701 21.3609V17.2392C23.4701 16.9344 23.3491 16.642 23.1335 16.4265C22.918 16.2109 22.6256 16.0899 22.3208 16.0899C18.2867 16.0899 14.3575 17.1429 10.6424 19.2217C8.75023 20.2852 6.98728 21.5636 5.38857 23.0317C6.22182 19.6068 8.32219 16.3499 11.4296 13.7137C14.7655 10.8849 18.837 9.19398 22.3208 9.19398C22.6256 9.19398 22.918 9.07289 23.1335 8.85735C23.3491 8.64181 23.4701 8.34948 23.4701 8.04466V3.92437L32.1891 12.6419L23.4701 21.3609Z" fill="black"/>
</g>
<defs>
<filter id="filter0_d_640_939" x="-2.61798e-05" y="0" width="37.7454" height="32.0001" filterUnits="userSpaceOnUse" color-interpolation-filters="sRGB">
<feFlood flood-opacity="0" result="BackgroundImageFix"/>
<feColorMatrix in="SourceAlpha" type="matrix" values="0 0 0 0 0 0 0 0 0 0 0 0 0 0 0 0 0 0 127 0" result="hardAlpha"/>
<feOffset dy="2.73684"/>
<feGaussianBlur stdDeviation="1.36842"/>
<feComposite in2="hardAlpha" operator="out"/>
<feColorMatrix type="matrix" values="0 0 0 0 0 0 0 0 0 0 0 0 0 0 0 0 0 0 0.25 0"/>
<feBlend mode="normal" in2="BackgroundImageFix" result="effect1_dropShadow_640_939"/>
<feBlend mode="normal" in="SourceGraphic" in2="effect1_dropShadow_640_939" result="shape"/>
</filter>
</defs>
</svg>
