<svg width="55" height="46" viewBox="0 0 55 46" fill="none" xmlns="http://www.w3.org/2000/svg">
<g filter="url(#filter0_d_640_929)">
<path d="M49.7764 17.0059L33.2551 0.48455C33.0241 0.253357 32.7298 0.0958395 32.4094 0.0319181C32.0889 -0.0320034 31.7567 0.00054279 31.4547 0.12544C31.1528 0.250337 30.8946 0.461976 30.7129 0.733591C30.5312 1.00521 30.4342 1.3246 30.434 1.65137V9.98433C25.077 10.4428 19.1603 13.0656 14.2927 17.1938C8.43173 22.1668 4.78257 28.575 4.0164 35.2372C3.95652 35.7552 4.06154 36.2788 4.31651 36.7336C4.57149 37.1885 4.96341 37.5513 5.43652 37.7704C5.90963 37.9896 6.43982 38.054 6.95162 37.9544C7.46343 37.8548 7.93078 37.5963 8.28717 37.2157C10.5589 34.7973 18.6419 27.15 30.434 26.4768V34.6941C30.4342 35.0209 30.5312 35.3402 30.7129 35.6119C30.8946 35.8835 31.1528 36.0951 31.4547 36.22C31.7567 36.3449 32.0889 36.3775 32.4094 36.3135C32.7298 36.2496 33.0241 36.0921 33.2551 35.8609L49.7764 19.3396C50.0854 19.0298 50.2589 18.6102 50.2589 18.1727C50.2589 17.7352 50.0854 17.3156 49.7764 17.0059ZM33.7383 30.7062V24.7813C33.7383 24.3431 33.5643 23.9229 33.2544 23.613C32.9446 23.3032 32.5244 23.1291 32.0862 23.1291C26.2872 23.1291 20.6389 24.6429 15.2984 27.6312C12.5785 29.1599 10.0442 30.9977 7.74609 33.108C8.94389 28.1847 11.9632 23.5029 16.4301 19.7133C21.2255 15.647 27.0781 13.2163 32.0862 13.2163C32.5244 13.2163 32.9446 13.0423 33.2544 12.7324C33.5643 12.4226 33.7383 12.0024 33.7383 11.5642V5.64128L46.2718 18.1727L33.7383 30.7062Z" fill="white"/>
</g>
<defs>
<filter id="filter0_d_640_929" x="0" y="0" width="54.2589" height="46" filterUnits="userSpaceOnUse" color-interpolation-filters="sRGB">
<feFlood flood-opacity="0" result="BackgroundImageFix"/>
<feColorMatrix in="SourceAlpha" type="matrix" values="0 0 0 0 0 0 0 0 0 0 0 0 0 0 0 0 0 0 127 0" result="hardAlpha"/>
<feOffset dy="4"/>
<feGaussianBlur stdDeviation="2"/>
<feComposite in2="hardAlpha" operator="out"/>
<feColorMatrix type="matrix" values="0 0 0 0 0 0 0 0 0 0 0 0 0 0 0 0 0 0 0.25 0"/>
<feBlend mode="normal" in2="BackgroundImageFix" result="effect1_dropShadow_640_929"/>
<feBlend mode="normal" in="SourceGraphic" in2="effect1_dropShadow_640_929" result="shape"/>
</filter>
</defs>
</svg>
