<svg width="27" height="34" viewBox="0 0 27 34" fill="none" xmlns="http://www.w3.org/2000/svg">
<mask id="mask0_640_898" style="mask-type:alpha" maskUnits="userSpaceOnUse" x="-7" y="-4" width="41" height="42">
<rect x="-6.74997" y="-3.37492" width="40.5001" height="40.5001" fill="#D9D9D9"/>
</mask>
<g mask="url(#mask0_640_898)">
<path d="M0 28.6875V25.3125H3.37501V13.5C3.37501 11.1656 4.07813 9.09142 5.48438 7.27735C6.89064 5.46329 8.71876 4.27501 10.9688 3.71251V2.53125C10.9688 1.82813 11.2149 1.23047 11.707 0.738282C12.1992 0.246094 12.7969 0 13.5 0C14.2031 0 14.8008 0.246094 15.293 0.738282C15.7852 1.23047 16.0313 1.82813 16.0313 2.53125V3.71251C18.2813 4.27501 20.1094 5.46329 21.5157 7.27735C22.9219 9.09142 23.625 11.1656 23.625 13.5V25.3125H27V28.6875H0ZM13.5 33.7501C12.5719 33.7501 11.7774 33.4196 11.1164 32.7586C10.4555 32.0977 10.125 31.3032 10.125 30.375H16.875C16.875 31.3032 16.5446 32.0977 15.8836 32.7586C15.2227 33.4196 14.4281 33.7501 13.5 33.7501ZM6.75001 25.3125H20.25V13.5C20.25 11.6438 19.5891 10.0547 18.2672 8.73283C16.9453 7.41095 15.3563 6.75001 13.5 6.75001C11.6438 6.75001 10.0547 7.41095 8.73283 8.73283C7.41095 10.0547 6.75001 11.6438 6.75001 13.5V25.3125Z" fill="#09B3AD"/>
</g>
</svg>
